<svg width="26" height="26" viewBox="0 0 26 26" fill="none" xmlns="http://www.w3.org/2000/svg">
<path d="M25.4171 20.5477L21.4018 16.5319C20.602 15.7354 19.2776 15.7596 18.45 16.5875L16.427 18.61C16.2992 18.5395 16.167 18.4659 16.0279 18.3879C14.7504 17.6801 13.002 16.7099 11.1622 14.8687C9.31687 13.0237 8.34582 11.2726 7.63584 9.99428C7.56092 9.85886 7.48913 9.72829 7.41825 9.6043L8.77592 8.24864L9.44341 7.58033C10.2723 6.7512 10.2952 5.42714 9.49726 4.62827L5.48197 0.612079C4.68407 -0.185675 3.35904 -0.161474 2.53013 0.667653L1.39849 1.8058L1.42941 1.8365C1.04995 2.32068 0.73287 2.87911 0.496905 3.48131C0.279389 4.05452 0.143965 4.60152 0.0820423 5.14964C-0.448151 9.54506 1.56043 13.5621 7.01145 19.0132C14.5464 26.5477 20.6186 25.9785 20.8806 25.9507C21.4511 25.8825 21.9979 25.7462 22.5535 25.5304C23.1505 25.2972 23.7086 24.9806 24.1925 24.6019L24.2172 24.6239L25.3636 23.5013C26.1908 22.6723 26.2146 21.3478 25.4171 20.5477Z" fill="#1F1F1F"/>
</svg>
